<svg width="50" height="50" viewBox="0 0 50 50" fill="none" xmlns="http://www.w3.org/2000/svg">
<circle cx="25" cy="25" r="22.5" fill="#2C3EE1" stroke="#2C3EE1"/>
<path fill-rule="evenodd" clip-rule="evenodd" d="M23.5 36C23.5 37.1046 24.3954 38 25.5 38C26.6046 38 27.5 37.1046 27.5 36V27.5H36C37.1046 27.5 38 26.6046 38 25.5C38 24.3954 37.1046 23.5 36 23.5H27.5V14C27.5 12.8954 26.6046 12 25.5 12C24.3954 12 23.5 12.8954 23.5 14V23.5H14C12.8954 23.5 12 24.3954 12 25.5C12 26.6046 12.8954 27.5 14 27.5H23.5V36Z" fill="white"/>
</svg>
