<svg width="296" height="27" viewBox="0 0 296 27" fill="none" xmlns="http://www.w3.org/2000/svg">
<path d="M26.0605 18.582C26.0605 19.4844 25.9434 20.2988 25.709 21.0254C25.4863 21.7402 25.1875 22.373 24.8125 22.9238C24.4375 23.4746 23.998 23.9434 23.4941 24.3301C22.9902 24.7168 22.4688 25.0332 21.9297 25.2793C21.3906 25.5254 20.8398 25.707 20.2773 25.8242C19.7266 25.9414 19.2051 26 18.7129 26H1.08203V21.4297H18.7129C19.5918 21.4297 20.2715 21.1719 20.752 20.6562C21.2441 20.1406 21.4902 19.4492 21.4902 18.582C21.4902 18.1602 21.4258 17.7734 21.2969 17.4219C21.168 17.0703 20.9805 16.7656 20.7344 16.5078C20.5 16.25 20.207 16.0508 19.8555 15.9102C19.5156 15.7695 19.1348 15.6992 18.7129 15.6992H8.20117C7.46289 15.6992 6.66602 15.5703 5.81055 15.3125C4.95508 15.043 4.1582 14.6152 3.41992 14.0293C2.69336 13.4434 2.08398 12.6758 1.5918 11.7266C1.11133 10.7773 0.871094 9.61719 0.871094 8.24609C0.871094 6.875 1.11133 5.7207 1.5918 4.7832C2.08398 3.83398 2.69336 3.06641 3.41992 2.48047C4.1582 1.88281 4.95508 1.45508 5.81055 1.19727C6.66602 0.927734 7.46289 0.792969 8.20117 0.792969H23.7578V5.36328H8.20117C7.33398 5.36328 6.6543 5.62695 6.16211 6.1543C5.68164 6.68164 5.44141 7.37891 5.44141 8.24609C5.44141 9.125 5.68164 9.82227 6.16211 10.3379C6.6543 10.8418 7.33398 11.0938 8.20117 11.0938H18.7129H18.748C19.2402 11.1055 19.7617 11.1758 20.3125 11.3047C20.8633 11.4219 21.4082 11.6094 21.9473 11.8672C22.498 12.125 23.0195 12.4531 23.5117 12.8516C24.0039 13.2383 24.4375 13.707 24.8125 14.2578C25.1992 14.8086 25.5039 15.4414 25.7266 16.1562C25.9492 16.8711 26.0605 17.6797 26.0605 18.582ZM54.9766 11.3398C54.9766 12.3828 54.8477 13.3145 54.5898 14.1348C54.332 14.9551 53.9805 15.6816 53.5352 16.3145C53.1016 16.9355 52.5977 17.4688 52.0234 17.9141C51.4492 18.3594 50.8457 18.7227 50.2129 19.0039C49.5918 19.2852 48.959 19.4902 48.3145 19.6191C47.6816 19.748 47.084 19.8125 46.5215 19.8125H36.1855V15.2422H46.5215C47.1074 15.1953 47.6348 15.0781 48.1035 14.8906C48.584 14.6914 48.9941 14.4277 49.334 14.0996C49.6738 13.7715 49.9375 13.3789 50.125 12.9219C50.3125 12.4531 50.4062 11.9258 50.4062 11.3398V9.26562C50.3477 8.69141 50.2246 8.16406 50.0371 7.68359C49.8496 7.20312 49.5918 6.79297 49.2637 6.45312C48.9473 6.11328 48.5605 5.84961 48.1035 5.66211C47.6465 5.46289 47.1191 5.36328 46.5215 5.36328H36.2207C35.6113 5.36328 35.1484 5.52148 34.832 5.83789C34.5156 6.1543 34.3574 6.61133 34.3574 7.20898V26H29.7871V7.20898C29.7871 6.03711 29.998 5.04102 30.4199 4.2207C30.8535 3.40039 31.3867 2.73828 32.0195 2.23438C32.6641 1.73047 33.3613 1.36719 34.1113 1.14453C34.8613 0.910156 35.5527 0.792969 36.1855 0.792969H46.5215C47.5527 0.792969 48.4785 0.927734 49.2988 1.19727C50.1191 1.45508 50.8398 1.80664 51.4609 2.25195C52.0938 2.68555 52.627 3.18945 53.0605 3.76367C53.5059 4.33789 53.8691 4.94141 54.1504 5.57422C54.4434 6.19531 54.6543 6.82812 54.7832 7.47266C54.9121 8.10547 54.9766 8.70312 54.9766 9.26562V11.3398ZM85.3516 15.8047C85.3516 17.3398 85.0879 18.752 84.5605 20.041C84.0332 21.3301 83.3008 22.4434 82.3633 23.3809C81.4258 24.3184 80.3125 25.0508 79.0234 25.5781C77.7461 26.0938 76.3516 26.3516 74.8398 26.3516H68.6523C67.1406 26.3516 65.7402 26.0938 64.4512 25.5781C63.1621 25.0508 62.0488 24.3184 61.1113 23.3809C60.1738 22.4434 59.4355 21.3301 58.8965 20.041C58.3691 18.752 58.1055 17.3398 58.1055 15.8047V10.9883C58.1055 9.46484 58.3691 8.05859 58.8965 6.76953C59.4355 5.46875 60.1738 4.35547 61.1113 3.42969C62.0488 2.49219 63.1621 1.75977 64.4512 1.23242C65.7402 0.705078 67.1406 0.441406 68.6523 0.441406H74.8398C76.3516 0.441406 77.7461 0.705078 79.0234 1.23242C80.3125 1.75977 81.4258 2.49219 82.3633 3.42969C83.3008 4.35547 84.0332 5.46875 84.5605 6.76953C85.0879 8.05859 85.3516 9.46484 85.3516 10.9883V15.8047ZM80.7812 10.9883C80.7812 10.0859 80.6348 9.27148 80.3418 8.54492C80.0605 7.80664 79.6562 7.17969 79.1289 6.66406C78.6133 6.13672 77.9863 5.73242 77.248 5.45117C76.5215 5.1582 75.7188 5.01172 74.8398 5.01172H68.6523C67.7617 5.01172 66.9473 5.1582 66.209 5.45117C65.4824 5.73242 64.8555 6.13672 64.3281 6.66406C63.8008 7.17969 63.3906 7.80664 63.0977 8.54492C62.8164 9.27148 62.6758 10.0859 62.6758 10.9883V15.8047C62.6758 16.707 62.8164 17.5273 63.0977 18.2656C63.3906 18.9922 63.8008 19.6191 64.3281 20.1465C64.8555 20.6621 65.4824 21.0664 66.209 21.3594C66.9473 21.6406 67.7617 21.7812 68.6523 21.7812H74.8047C75.6953 21.7812 76.5039 21.6406 77.2305 21.3594C77.9688 21.0664 78.6016 20.6621 79.1289 20.1465C79.6562 19.6191 80.0605 18.9922 80.3418 18.2656C80.6348 17.5273 80.7812 16.707 80.7812 15.8047V10.9883ZM115.059 9.26562C115.059 10.3086 114.93 11.2402 114.672 12.0605C114.414 12.8809 114.062 13.6074 113.617 14.2402C113.184 14.8613 112.68 15.3945 112.105 15.8398C111.531 16.2852 110.928 16.6543 110.295 16.9473C109.674 17.2285 109.041 17.4336 108.396 17.5625C107.764 17.6914 107.166 17.7559 106.604 17.7559L116.148 26H109.082L99.5547 17.7559H96.2676V13.1855H106.604C107.178 13.1387 107.699 13.0215 108.168 12.834C108.648 12.6348 109.059 12.3711 109.398 12.043C109.75 11.7148 110.02 11.3223 110.207 10.8652C110.395 10.3965 110.488 9.86328 110.488 9.26562V6.38281C110.488 6.125 110.453 5.93164 110.383 5.80273C110.324 5.66211 110.242 5.5625 110.137 5.50391C110.043 5.43359 109.938 5.39258 109.82 5.38086C109.715 5.36914 109.615 5.36328 109.521 5.36328H94.4395V26H89.8691V3.0957C89.8691 2.7793 89.9277 2.48047 90.0449 2.19922C90.1621 1.91797 90.3203 1.67188 90.5195 1.46094C90.7305 1.25 90.9766 1.08594 91.2578 0.96875C91.5391 0.851562 91.8438 0.792969 92.1719 0.792969H109.521C110.541 0.792969 111.402 0.980469 112.105 1.35547C112.809 1.71875 113.377 2.18164 113.811 2.74414C114.256 3.29492 114.572 3.89258 114.76 4.53711C114.959 5.18164 115.059 5.78516 115.059 6.34766V9.26562ZM142.217 5.36328H132.145V26H127.574V5.36328H117.484V0.792969H142.217V5.36328ZM169.814 18.582C169.814 19.4844 169.697 20.2988 169.463 21.0254C169.24 21.7402 168.941 22.373 168.566 22.9238C168.191 23.4746 167.752 23.9434 167.248 24.3301C166.744 24.7168 166.223 25.0332 165.684 25.2793C165.145 25.5254 164.594 25.707 164.031 25.8242C163.48 25.9414 162.959 26 162.467 26H144.836V21.4297H162.467C163.346 21.4297 164.025 21.1719 164.506 20.6562C164.998 20.1406 165.244 19.4492 165.244 18.582C165.244 18.1602 165.18 17.7734 165.051 17.4219C164.922 17.0703 164.734 16.7656 164.488 16.5078C164.254 16.25 163.961 16.0508 163.609 15.9102C163.27 15.7695 162.889 15.6992 162.467 15.6992H151.955C151.217 15.6992 150.42 15.5703 149.564 15.3125C148.709 15.043 147.912 14.6152 147.174 14.0293C146.447 13.4434 145.838 12.6758 145.346 11.7266C144.865 10.7773 144.625 9.61719 144.625 8.24609C144.625 6.875 144.865 5.7207 145.346 4.7832C145.838 3.83398 146.447 3.06641 147.174 2.48047C147.912 1.88281 148.709 1.45508 149.564 1.19727C150.42 0.927734 151.217 0.792969 151.955 0.792969H167.512V5.36328H151.955C151.088 5.36328 150.408 5.62695 149.916 6.1543C149.436 6.68164 149.195 7.37891 149.195 8.24609C149.195 9.125 149.436 9.82227 149.916 10.3379C150.408 10.8418 151.088 11.0938 151.955 11.0938H162.467H162.502C162.994 11.1055 163.516 11.1758 164.066 11.3047C164.617 11.4219 165.162 11.6094 165.701 11.8672C166.252 12.125 166.773 12.4531 167.266 12.8516C167.758 13.2383 168.191 13.707 168.566 14.2578C168.953 14.8086 169.258 15.4414 169.48 16.1562C169.703 16.8711 169.814 17.6797 169.814 18.582ZM207.713 26H191.225C190.803 26 190.346 25.9531 189.854 25.8594C189.373 25.7539 188.893 25.5957 188.412 25.3848C187.943 25.1738 187.492 24.9043 187.059 24.5762C186.625 24.2363 186.238 23.832 185.898 23.3633C185.57 22.8828 185.307 22.332 185.107 21.7109C184.908 21.0781 184.809 20.3691 184.809 19.584V7.20898C184.809 6.78711 184.855 6.33594 184.949 5.85547C185.055 5.36328 185.213 4.88281 185.424 4.41406C185.635 3.93359 185.91 3.47656 186.25 3.04297C186.59 2.60937 186.994 2.22852 187.463 1.90039C187.943 1.56055 188.494 1.29102 189.115 1.0918C189.736 0.892578 190.439 0.792969 191.225 0.792969H207.713V5.36328H191.225C190.627 5.36328 190.17 5.52148 189.854 5.83789C189.537 6.1543 189.379 6.62305 189.379 7.24414V19.584C189.379 20.1699 189.537 20.627 189.854 20.9551C190.182 21.2715 190.639 21.4297 191.225 21.4297H207.713V26ZM238.105 15.8047C238.105 17.3398 237.842 18.752 237.314 20.041C236.787 21.3301 236.055 22.4434 235.117 23.3809C234.18 24.3184 233.066 25.0508 231.777 25.5781C230.5 26.0938 229.105 26.3516 227.594 26.3516H221.406C219.895 26.3516 218.494 26.0938 217.205 25.5781C215.916 25.0508 214.803 24.3184 213.865 23.3809C212.928 22.4434 212.189 21.3301 211.65 20.041C211.123 18.752 210.859 17.3398 210.859 15.8047V10.9883C210.859 9.46484 211.123 8.05859 211.65 6.76953C212.189 5.46875 212.928 4.35547 213.865 3.42969C214.803 2.49219 215.916 1.75977 217.205 1.23242C218.494 0.705078 219.895 0.441406 221.406 0.441406H227.594C229.105 0.441406 230.5 0.705078 231.777 1.23242C233.066 1.75977 234.18 2.49219 235.117 3.42969C236.055 4.35547 236.787 5.46875 237.314 6.76953C237.842 8.05859 238.105 9.46484 238.105 10.9883V15.8047ZM233.535 10.9883C233.535 10.0859 233.389 9.27148 233.096 8.54492C232.814 7.80664 232.41 7.17969 231.883 6.66406C231.367 6.13672 230.74 5.73242 230.002 5.45117C229.275 5.1582 228.473 5.01172 227.594 5.01172H221.406C220.516 5.01172 219.701 5.1582 218.963 5.45117C218.236 5.73242 217.609 6.13672 217.082 6.66406C216.555 7.17969 216.145 7.80664 215.852 8.54492C215.57 9.27148 215.43 10.0859 215.43 10.9883V15.8047C215.43 16.707 215.57 17.5273 215.852 18.2656C216.145 18.9922 216.555 19.6191 217.082 20.1465C217.609 20.6621 218.236 21.0664 218.963 21.3594C219.701 21.6406 220.516 21.7812 221.406 21.7812H227.559C228.449 21.7812 229.258 21.6406 229.984 21.3594C230.723 21.0664 231.355 20.6621 231.883 20.1465C232.41 19.6191 232.814 18.9922 233.096 18.2656C233.389 17.5273 233.535 16.707 233.535 15.8047V10.9883ZM267.777 15.4531C267.777 16.9883 267.508 18.4004 266.969 19.6895C266.441 20.9785 265.709 22.0918 264.771 23.0293C263.834 23.9551 262.721 24.6816 261.432 25.209C260.143 25.7363 258.742 26 257.23 26H244.891C244.562 26 244.258 25.9414 243.977 25.8242C243.695 25.707 243.449 25.5488 243.238 25.3496C243.039 25.1387 242.881 24.8926 242.764 24.6113C242.646 24.3301 242.588 24.0254 242.588 23.6973V3.0957C242.588 2.7793 242.646 2.48047 242.764 2.19922C242.881 1.91797 243.039 1.67188 243.238 1.46094C243.449 1.25 243.695 1.08594 243.977 0.96875C244.258 0.851562 244.562 0.792969 244.891 0.792969H257.23C258.742 0.792969 260.143 1.05664 261.432 1.58398C262.721 2.11133 263.834 2.84375 264.771 3.78125C265.709 4.70703 266.441 5.82031 266.969 7.12109C267.508 8.41016 267.777 9.81641 267.777 11.3398V15.4531ZM263.207 11.3398C263.207 10.4492 263.061 9.63477 262.768 8.89648C262.486 8.1582 262.082 7.53125 261.555 7.01562C261.027 6.48828 260.395 6.08398 259.656 5.80273C258.93 5.50977 258.121 5.36328 257.23 5.36328H247.158V21.4297H257.23C258.121 21.4297 258.93 21.2891 259.656 21.0078C260.395 20.7148 261.027 20.3105 261.555 19.7949C262.082 19.2676 262.486 18.6406 262.768 17.9141C263.061 17.1758 263.207 16.3555 263.207 15.4531V11.3398ZM292.984 15.6992H278.553V11.0938H292.984V15.6992ZM295.041 26H278.553C277.92 26 277.229 25.8887 276.479 25.666C275.729 25.4434 275.031 25.0801 274.387 24.5762C273.754 24.0605 273.221 23.3984 272.787 22.5898C272.365 21.7695 272.154 20.7676 272.154 19.584V3.0957C272.154 2.7793 272.213 2.48047 272.33 2.19922C272.447 1.91797 272.605 1.67188 272.805 1.46094C273.016 1.25 273.262 1.08594 273.543 0.96875C273.824 0.851562 274.129 0.792969 274.457 0.792969H295.041V5.36328H276.725V19.584C276.725 20.1816 276.883 20.6387 277.199 20.9551C277.516 21.2715 277.979 21.4297 278.588 21.4297H295.041V26Z" fill="#1021B8"/>
</svg>
