<svg width="38" height="69" viewBox="0 0 38 69" fill="none" xmlns="http://www.w3.org/2000/svg">
<path fill-rule="evenodd" clip-rule="evenodd" d="M34.7917 68.2694C29.559 65.4964 21.6158 60.3117 15.7998 53.7039C13.6829 51.2988 11.7932 48.6361 10.4345 45.7842C9.92267 45.4047 9.4103 45.0032 8.898 44.5794C0.729562 37.8209 -0.191454 27.9635 1.85659 19.5484C2.88369 15.3282 4.67171 11.3674 6.76787 8.14653C7.29318 7.33937 7.84499 6.56781 8.41708 5.84356L3.371 6.59765L2.77979 2.64159L13.8044 0.994037C13.815 0.988287 13.8255 0.982557 13.8361 0.976851L13.8423 0.98837L14.697 0.860651L16.6719 0.565513L16.9701 2.54L18.646 13.6353L14.6908 14.2326L13.4774 6.19869C12.372 7.24689 11.22 8.63885 10.1204 10.3284C8.26076 13.1858 6.65908 16.7309 5.74314 20.4943C4.25213 26.6207 4.61521 33.0552 8.30896 38.1653C8.09653 35.4022 8.50121 32.5364 9.7333 29.6155C11.7904 24.7386 17.4299 22.4942 22.6587 22.6969C28.0084 22.9043 33.7253 25.6611 36.2452 31.7184C39.268 38.9843 36.9603 46.0337 31.1865 49.2498C27.5266 51.2885 22.8108 51.6086 17.7208 49.7802C18.0685 50.2103 18.4294 50.6373 18.8023 51.061C24.1841 57.1755 31.6729 62.0897 36.6647 64.735L34.7917 68.2694ZM13.4188 31.1701C11.7084 35.2251 12.0009 39.2666 13.6348 43.1597C20.1916 47.7039 25.8153 47.663 29.2401 45.7554C32.9847 43.6695 34.9104 38.9236 32.5521 33.2548C30.7674 28.9648 26.6839 26.8559 22.5038 26.6939C18.2028 26.5271 14.5833 28.4094 13.4188 31.1701Z" fill="white"/>
</svg>
