<svg width="41" height="68" viewBox="0 0 41 68" fill="none" xmlns="http://www.w3.org/2000/svg">
<path fill-rule="evenodd" clip-rule="evenodd" d="M38.6939 0.102058C40.1273 5.84804 41.5775 15.2221 40.5476 23.9645C40.1727 27.1464 39.4544 30.3315 38.2405 33.248C38.3002 33.8824 38.3438 34.5318 38.3708 35.1962C38.8007 45.7894 32.0823 53.0613 24.4531 57.1604C20.6271 59.2162 16.4855 60.5326 12.6886 61.1252C11.7371 61.2737 10.7943 61.3787 9.87321 61.437L13.806 64.6874L11.2578 67.7706L2.66543 60.6693C2.6541 60.6653 2.64278 60.6613 2.63148 60.6572L2.63589 60.6449L1.9698 60.0944L0.430577 58.8223L1.70029 57.2811L8.83524 48.6205L11.9225 51.1639L6.75616 57.4349C8.27462 57.5569 10.08 57.4839 12.0717 57.173C15.4402 56.6473 19.1479 55.4701 22.5599 53.6369C28.1141 50.6526 32.6587 46.0829 33.9924 39.9203C32.0786 41.9246 29.6761 43.5384 26.6797 44.5735C21.6768 46.3017 16.2387 43.6058 12.8957 39.5802C9.47538 35.4615 7.70636 29.3661 10.5291 23.4439C13.9151 16.3399 20.7018 13.3464 26.9525 15.4931C30.9147 16.8538 34.304 20.1483 36.3449 25.157C36.4325 24.6109 36.509 24.057 36.5751 23.4965C37.5281 15.4069 36.1803 6.5517 34.8128 1.07025L38.6939 0.102058ZM25.3737 40.7928C29.5335 39.3558 32.3448 36.4377 34.1495 32.6207C33.1492 24.7061 29.3609 20.5495 25.6533 19.2762C21.5993 17.884 16.7817 19.6225 14.1399 25.1649C12.1407 29.3593 13.3004 33.8065 15.9729 37.0247C18.7228 40.3359 22.5417 41.771 25.3737 40.7928Z" fill="white"/>
</svg>
