<svg width="30" height="31" viewBox="0 0 30 31" fill="none" xmlns="http://www.w3.org/2000/svg">
<path fill-rule="evenodd" clip-rule="evenodd" d="M15.0002 0.5C13.7729 0.5 12.778 1.49492 12.778 2.72222V13.2778H2.22222C0.994923 13.2778 0 14.2727 0 15.5C0 16.7273 0.994922 17.7222 2.22222 17.7222H12.778V28.2778C12.778 29.5051 13.7729 30.5 15.0002 30.5C16.2275 30.5 17.2225 29.5051 17.2225 28.2778V17.7222H27.7778C29.0051 17.7222 30 16.7273 30 15.5C30 14.2727 29.0051 13.2778 27.7778 13.2778H17.2225V2.72222C17.2225 1.49492 16.2275 0.5 15.0002 0.5Z" fill="#888888"/>
</svg>
