<svg width="53" height="58" viewBox="0 0 53 58" fill="none" xmlns="http://www.w3.org/2000/svg">
<path fill-rule="evenodd" clip-rule="evenodd" d="M0 0.105923C0.156821 6.02593 1.26856 15.4461 4.60084 23.5939C5.81369 26.5594 7.35834 29.436 9.30854 31.9211C9.42085 32.5484 9.55262 33.1858 9.70447 33.8332C12.1256 44.1549 20.5452 49.3633 28.9932 51.2709C33.2299 52.2276 37.5727 52.3874 41.3897 51.9421C42.3463 51.8305 43.2827 51.6794 44.1858 51.489L41.2665 55.6734L44.547 57.9621L50.9251 48.8201C50.935 48.8132 50.9448 48.8063 50.9546 48.7994L50.9471 48.7887L51.4415 48.08L52.5841 46.4423L50.9482 45.2972L41.7555 38.8623L39.4616 42.1392L46.118 46.7986C44.6875 47.3226 42.9285 47.7355 40.9262 47.9691C37.5399 48.3641 33.6524 48.2222 29.8742 47.3691C23.7239 45.9803 18.122 42.7938 15.1875 37.213C17.568 38.632 20.3147 39.5438 23.4789 39.7392C28.7618 40.0653 33.2799 36.0121 35.4235 31.2386C37.6166 26.3548 37.6896 20.0082 33.3847 15.0576C28.2209 9.11917 20.8806 8.05139 15.4325 11.7927C11.979 14.1643 9.59521 18.2458 8.96943 23.618C8.73883 23.1152 8.51683 22.6021 8.30317 22.0797C5.21972 14.5403 4.1482 5.64746 3.9986 0L0 0.105923ZM23.7253 35.7468C19.3327 35.4756 15.8429 33.4165 13.0824 30.2217C11.9278 22.3282 14.4653 17.3093 17.6969 15.0901C21.2303 12.6636 26.3375 13.0492 30.3663 17.6823C33.4152 21.1886 33.4882 25.7839 31.7745 29.6C30.0113 33.5265 26.7158 35.9314 23.7253 35.7468Z" fill="white"/>
</svg>
