<svg width="30" height="30" viewBox="0 0 30 30" fill="none" xmlns="http://www.w3.org/2000/svg">
<path fill-rule="evenodd" clip-rule="evenodd" d="M21.4622 13.2311C21.4622 17.777 17.777 21.4622 13.2311 21.4622C8.68519 21.4622 5 17.777 5 13.2311C5 8.68519 8.68519 5 13.2311 5C17.777 5 21.4622 8.68519 21.4622 13.2311ZM20.6895 21.6282C18.7061 23.3913 16.0936 24.4622 13.2311 24.4622C7.02834 24.4622 2 19.4339 2 13.2311C2 7.02834 7.02834 2 13.2311 2C19.4339 2 24.4622 7.02834 24.4622 13.2311C24.4622 15.6125 23.721 17.8208 22.4568 19.6379C22.7115 19.7016 22.9527 19.8331 23.1518 20.0322L27.7691 24.6495C28.3549 25.2353 28.3549 26.1851 27.7691 26.7709C27.1834 27.3566 26.2336 27.3566 25.6478 26.7709L21.0305 22.1535C20.8762 21.9992 20.7626 21.8197 20.6895 21.6282Z" fill="#444444"/>
</svg>
