<svg width="61" height="51" viewBox="0 0 61 51" fill="none" xmlns="http://www.w3.org/2000/svg">
<path fill-rule="evenodd" clip-rule="evenodd" d="M0.105684 0.88912C6.02284 0.647648 15.4964 1.12366 23.8498 3.90071C26.8901 4.91147 29.8641 6.25927 32.4747 8.03801C33.108 8.10791 33.7529 8.19653 34.409 8.30451C44.8701 10.0264 50.6327 18.0768 53.1038 26.3775C54.3431 30.5403 54.7945 34.8625 54.6068 38.7008C54.5598 39.6627 54.4719 40.6072 54.3427 41.5211L58.3214 38.3271L60.8255 41.4463L52.1329 48.4245C52.1266 48.4348 52.1204 48.4451 52.1142 48.4553L52.103 48.4485L51.4291 48.9895L49.8719 50.2396L48.6194 48.6843L41.5812 39.945L44.6965 37.4361L49.7928 43.7641C50.2194 42.3017 50.5132 40.5189 50.6116 38.5055C50.7781 35.1003 50.3753 31.2311 49.2701 27.5188C47.471 21.4757 43.9152 16.1007 38.1497 13.548C39.7255 15.8277 40.82 18.5069 41.2275 21.6508C41.908 26.8998 38.1677 31.6802 33.5491 34.1398C28.8237 36.6562 22.4965 37.1557 17.2677 33.1933C10.9955 28.4403 9.43676 21.1884 12.8034 15.5011C14.9375 11.896 18.8495 9.24328 24.1675 8.2578C23.6504 8.06151 23.1235 7.87451 22.5879 7.69645C14.8583 5.12676 5.91352 4.65544 0.268783 4.88579L0.105684 0.88912ZM37.2607 22.165C36.6949 17.8005 34.4058 14.457 31.0328 11.9176C23.0795 11.2962 18.2425 14.1653 16.2455 17.5387C14.062 21.2273 14.7901 26.297 19.6835 30.0053C23.3868 32.8116 27.9766 32.5755 31.6689 30.6092C35.468 28.586 37.6459 25.1364 37.2607 22.165Z" fill="white"/>
</svg>
